<?xml version="1.0" standalone="no"?>
<!DOCTYPE svg PUBLIC "-//W3C//DTD SVG 20010904//EN"
 "http://www.w3.org/TR/2001/REC-SVG-20010904/DTD/svg10.dtd">
<svg version="1.0" xmlns="http://www.w3.org/2000/svg"
 width="200.000000pt" height="200.000000pt" viewBox="0 0 200.000000 200.000000"
 preserveAspectRatio="xMidYMid meet">

<g transform="translate(0.000000,200.000000) scale(0.100000,-0.100000)"
fill="#000000" stroke="none">
<path d="M997 1523 c-14 -22 -65 -217 -60 -229 4 -10 23 -14 64 -14 48 0 63 4
85 25 32 30 83 33 107 8 35 -40 29 -115 -11 -127 -13 -5 -24 -22 -31 -54 -7
-26 -16 -62 -21 -79 l-8 -33 107 0 c105 0 109 1 150 31 148 107 73 349 -108
349 -32 0 -44 6 -73 39 -19 22 -50 48 -70 59 -40 23 -123 39 -131 25z"/>
<path d="M872 1493 c-18 -9 -46 -33 -63 -54 -26 -33 -36 -39 -70 -39 -61 0
-124 -35 -159 -88 -25 -37 -30 -55 -30 -101 1 -71 23 -116 78 -158 l44 -33
188 0 188 0 21 86 c11 48 18 91 15 96 -9 14 -154 -1 -179 -18 -28 -20 -50 -17
-84 12 -51 43 -42 82 32 141 15 12 61 147 55 163 -2 5 -18 2 -36 -7z"/>
<path d="M299 881 c-21 -16 -24 -28 -24 -81 0 -76 22 -100 92 -100 67 0 83 12
83 65 l0 45 -40 0 c-33 0 -40 -3 -40 -20 0 -12 7 -20 16 -20 22 0 14 -34 -9
-38 -54 -11 -80 92 -32 124 20 13 31 14 56 5 41 -14 39 -14 39 8 0 23 -19 31
-75 31 -27 0 -51 -7 -66 -19z"/>
<path d="M480 821 c0 -100 15 -124 82 -125 73 -2 88 19 88 121 0 76 -2 83 -20
83 -18 0 -20 -7 -20 -66 0 -77 -12 -104 -44 -104 -30 0 -36 16 -36 101 0 67
-1 69 -25 69 -25 0 -25 -1 -25 -79z"/>
<path d="M710 813 c-18 -49 -35 -94 -38 -100 -2 -8 4 -13 18 -13 13 0 24 8 27
20 4 16 14 20 44 20 28 0 41 -5 49 -20 10 -19 50 -29 50 -12 0 4 -15 49 -32
99 -30 85 -35 93 -59 93 -24 0 -29 -8 -59 -87z m58 -31 c-28 -5 -30 0 -16 39
l11 33 12 -34 c11 -32 10 -35 -7 -38z"/>
<path d="M880 800 l0 -100 25 0 c22 0 25 4 25 35 0 25 5 35 15 35 9 0 23 -16
32 -35 13 -28 23 -35 45 -35 33 0 34 3 8 45 -20 32 -20 32 0 50 26 23 26 59 0
85 -16 16 -33 20 -85 20 l-65 0 0 -100z m114 44 c9 -22 -11 -44 -40 -44 -20 0
-24 5 -24 30 0 26 3 30 29 30 17 0 31 -6 35 -16z"/>
<path d="M1080 801 l0 -101 55 0 c30 0 65 5 79 11 32 15 50 60 43 106 -10 57
-36 76 -112 81 l-65 4 0 -101z m124 27 c16 -45 -3 -82 -42 -86 l-32 -3 0 61 0
61 32 -3 c25 -2 35 -9 42 -30z"/>
<path d="M1280 800 l0 -100 25 0 25 0 0 100 0 100 -25 0 -25 0 0 -100z"/>
<path d="M1409 873 c-24 -62 -59 -161 -59 -167 0 -16 39 -4 45 14 5 16 15 20
47 20 31 0 41 -4 45 -20 4 -13 14 -20 30 -20 28 0 28 -4 -17 120 -24 65 -31
75 -54 78 -21 3 -28 -2 -37 -25z m45 -55 c9 -35 8 -38 -14 -38 -11 0 -20 3
-20 8 0 19 13 52 20 52 4 0 10 -10 14 -22z"/>
<path d="M1560 800 c0 -92 1 -100 20 -100 16 0 19 8 22 58 l3 57 45 -57 c25
-32 53 -58 62 -58 16 0 18 11 18 100 0 93 -1 100 -20 100 -18 0 -20 -7 -20
-55 0 -30 -3 -55 -7 -55 -5 1 -25 25 -46 55 -24 35 -45 55 -57 55 -19 0 -20
-7 -20 -100z"/>
<path d="M812 598 c-17 -17 -15 -58 4 -65 22 -8 48 9 51 33 2 15 1 14 -7 -3
-13 -32 -50 -31 -50 2 0 13 8 29 18 34 9 6 12 11 7 11 -6 0 -16 -5 -23 -12z"/>
<path d="M913 603 c9 -2 23 -2 30 0 6 3 -1 5 -18 5 -16 0 -22 -2 -12 -5z"/>
<path d="M985 599 c-4 -6 -4 -13 -1 -16 3 -3 1 -12 -5 -19 -15 -19 -2 -34 26
-32 31 3 32 15 4 39 -11 10 -18 23 -14 28 3 6 4 11 1 11 -3 0 -8 -5 -11 -11z
m25 -49 c0 -5 -7 -10 -15 -10 -8 0 -15 5 -15 10 0 6 7 10 15 10 8 0 15 -4 15
-10z"/>
<path d="M1072 598 c-24 -24 -6 -69 28 -67 9 0 6 4 -8 10 -31 12 -27 54 5 53
12 0 20 3 17 8 -7 12 -28 10 -42 -4z"/>
<path d="M1168 603 c13 -3 19 -9 16 -15 -4 -7 -2 -8 5 -4 17 11 3 26 -22 25
-22 -2 -22 -2 1 -6z"/>
<path d="M1162 558 c-18 -18 -14 -28 11 -27 17 1 18 2 4 6 -14 4 -16 8 -6 19
14 17 8 19 -9 2z"/>
</g>
</svg>
